# xmcd
#
# Track frame offsets:
#	150
#	14364
#	44614
#
# Disc length: 954 seconds
#
# Revision: 0
# Processed by: cddbd v1.5.2PL0 Copyright (c) Steve Scherf et al.
# Submitted via: dBpowerAMP V4.0
#
DISCID=1f03b803
DTITLE=Murphy Brown feat. Lorraine - Just Can't Get Enough [CDS]
DYEAR=2006
DGENRE=Dance
TTITLE0=Just Can't Get Enough (R.U.F.F Mix)
TTITLE1=Just Can't Get Enough (Niels Van Gogh Remix)
TTITLE2=Just Can't Get Enough (Alex Megane vs. Marc Van Damme Remix)
EXTD=
EXTT0=
EXTT1=
EXTT2=
PLAYORDER=
